# xmcd
#
# Track frame offsets:
#	150
#	31300
#	50334
#	76887
#	93034
#	109047
#	131000
#	148234
#	162456
#	180731
#	195554
#	214444
#	240496
#	276408
#
# Disc length: 4671 seconds
#
# Revision: 1
# Processed by: cddbd v1.5.2PL0 Copyright (c) Steve Scherf et al.
# Submitted via: audiograbber 1.83.01
#
DISCID=c7123d0e
DTITLE=Various Artist - Blue Rose Nuggets 31
DYEAR=2008
DGENRE=Country-Rock
TTITLE0=GREYHOUND SOUL - Time To Come Home
TTITLE1=CHRIS KNIGHT - Cry Lonely
TTITLE2=DRIVEWAY - Revolving
TTITLE3=SLOBBERBONE - To Love Somebody
TTITLE4=DANNY and DUSTY - Send Me A Postcard
TTITLE5=JAMES McMURTRY - Bayou Tortous
TTITLE6=SAND RUBIES - Satellite Radio
TTITLE7=SAM LAPIDES - Caught In The Distance
TTITLE8=SUSAN COWSILL - Christoph Columbus Transcontinental Highway
TTITLE9=BUDDY MILLER - Shelter Me
TTITLE10=JORDAN ZEVON - Home
TTITLE11=OLD 97's - Color Of A Lonely Heart Is Blue
TTITLE12=BLUE ROSE ROCKESTRA - Willin'
TTITLE13=Ben Lee - Data Track
EXTD=
EXTT0=
EXTT1=
EXTT2=
EXTT3=
EXTT4=
EXTT5=
EXTT6=
EXTT7=
EXTT8=
EXTT9=
EXTT10=
EXTT11=
EXTT12=
EXTT13=
PLAYORDER=
